<?xml version="1.0" standalone="no"?>
<!DOCTYPE svg PUBLIC "-//W3C//DTD SVG 20010904//EN"
 "http://www.w3.org/TR/2001/REC-SVG-20010904/DTD/svg10.dtd">
<svg version="1.0" xmlns="http://www.w3.org/2000/svg"
 width="1408.000000pt" height="768.000000pt" viewBox="0 0 1408.000000 768.000000"
 preserveAspectRatio="xMidYMid meet">

<g transform="translate(0.000000,768.000000) scale(0.100000,-0.100000)"
fill="#FFFFFF" stroke="none">
<path d="M6993 6327 c16 -10 32 -29 37 -43 6 -16 10 -765 10 -1988 l0 -1962 25
-50 c36 -71 80 -98 169 -102 86 -3 133 19 181 86 l30 44 3 1126 2 1126 -29 30
c-38 41 -46 78 -26 121 23 47 74 70 120 55 47 -16 75 -53 75 -103 0 -32 -6
-46 -34 -72 l-34 -32 0 -1114 c0 -1106 0 -1114 -21 -1169 -41 -108 -137 -171
-262 -171 -87 0 -163 32 -209 91 -64 81 -60 -70 -60 2077 0 1328 -3 1961 -10
1974 -10 18 -25 19 -410 19 -322 0 -401 -3 -412 -14 -11 -11 -14 -185 -16
-992 -2 -638 -6 -990 -13 -1011 -13 -40 -81 -100 -128 -113 -20 -5 -106 -10
-192 -10 -122 0 -173 -4 -235 -20 -278 -70 -480 -285 -529 -565 -4 -22 -11
-281 -15 -575 -8 -608 -7 -606 -95 -781 -108 -216 -222 -336 -392 -415 -239
-112 -508 -77 -732 94 -127 97 -230 244 -277 395 -17 54 -19 57 -51 57 -40 0
-40 -5 -4 -96 157 -398 530 -644 905 -596 189 24 351 106 496 252 128 127 208
267 261 455 22 77 23 100 29 640 7 618 4 589 75 724 62 117 176 215 308 262
53 18 93 23 267 29 113 4 219 12 236 17 110 37 180 106 219 219 16 45 18 118
16 951 l-2 903 25 25 25 25 219 0 c206 0 221 -1 246 -21 l26 -20 2 -1897 3
-1897 23 -58 c29 -71 120 -172 190 -210 177 -96 383 -67 518 75 66 69 100 139
114 236 5 40 9 232 9 430 -1 236 3 378 10 420 36 194 120 359 254 499 l60 62
-71 76 c-84 90 -149 191 -191 296 -52 129 -63 203 -70 444 l-6 221 -37 61
c-34 58 -35 63 -17 68 32 10 52 -2 89 -56 l35 -52 6 -236 c6 -215 9 -244 33
-324 33 -112 45 -140 94 -224 42 -71 167 -223 183 -223 6 0 33 15 62 33 80 52
174 94 257 115 l75 20 -45 21 c-116 54 -229 180 -279 310 l-26 66 -5 710 c-4
502 -9 718 -18 737 -25 59 -76 57 -109 -5 -17 -30 -18 -82 -18 -717 0 -639 1
-690 19 -760 27 -107 93 -232 170 -322 l67 -77 -38 -7 c-35 -7 -39 -5 -89 49
-99 106 -172 269 -193 432 -9 64 -11 277 -9 730 l3 641 25 48 c32 62 67 88
119 90 49 1 87 -25 115 -80 21 -38 21 -51 21 -724 l1 -685 23 -70 c46 -140
128 -239 251 -304 108 -58 154 -63 554 -59 l361 4 69 26 c129 50 214 123 275
238 45 84 61 171 61 334 l0 138 -30 35 c-42 47 -42 103 -1 144 l30 30 3 407
c3 388 4 409 24 452 25 54 88 113 139 130 20 7 65 10 101 8 78 -5 134 -40 179
-113 l30 -48 3 -503 3 -502 23 -6 c33 -8 83 -52 104 -90 16 -29 17 -100 13
-1017 l-4 -986 37 -69 c40 -75 45 -93 19 -73 -9 8 -14 9 -11 4 4 -6 2 -17 -3
-25 -13 -21 -53 28 -79 98 -19 51 -20 78 -20 1030 0 911 -1 979 -18 1011 -17
34 -66 70 -78 59 -3 -4 -1 -21 5 -39 14 -40 14 -276 0 -355 -60 -342 -330
-654 -649 -749 -100 -30 -99 -27 -32 -68 74 -46 168 -147 210 -225 62 -117 62
-111 62 -832 l0 -655 24 -51 c31 -67 80 -98 153 -98 43 0 59 5 90 30 77 62 73
18 73 775 0 744 -1 765 -61 921 -34 87 -112 213 -169 273 l-39 40 24 27 24 27
47 -52 c98 -108 170 -245 220 -418 17 -59 19 -120 22 -784 3 -803 6 -768 -66
-840 -57 -57 -88 -70 -168 -69 -84 0 -144 29 -188 92 -56 82 -56 79 -56 783 0
617 -1 650 -20 711 -53 172 -210 316 -379 348 -30 6 -206 10 -400 10 -382 0
-414 -4 -523 -62 -159 -85 -252 -242 -265 -450 -6 -96 -6 -98 20 -118 54 -43
56 -116 3 -157 l-25 -20 -3 -454 c-3 -442 -4 -455 -25 -501 -30 -66 -105 -143
-172 -175 l-56 -28 -550 0 -550 0 -67 32 c-114 54 -184 145 -207 268 -7 40
-11 377 -11 1048 l0 989 33 45 32 45 6 -28 c4 -16 6 -378 6 -804 0 -872 -2
-854 74 -1006 73 -149 211 -270 369 -325 56 -20 85 -23 215 -24 133 0 159 3
224 24 253 83 410 314 411 603 0 77 -2 89 -20 98 -25 13 -50 61 -50 94 0 14
14 41 31 60 l30 35 4 208 c3 170 8 223 25 288 60 230 199 404 409 509 147 74
174 78 661 86 480 8 479 7 611 77 144 75 260 199 321 344 57 136 58 146 58
845 0 573 2 643 16 655 11 9 20 10 32 2 16 -9 17 -66 17 -689 l0 -679 -37
-102 c-90 -253 -268 -420 -533 -501 -40 -12 -139 -16 -485 -22 -416 -6 -438
-7 -505 -29 -143 -46 -213 -88 -305 -180 -73 -72 -95 -101 -134 -181 -65 -132
-76 -195 -76 -437 0 -185 2 -203 18 -215 50 -35 56 -105 14 -148 -28 -27 -29
-33 -35 -154 -9 -204 -69 -345 -200 -478 -55 -55 -87 -78 -170 -117 -121 -59
-187 -73 -322 -73 -256 1 -475 112 -602 306 -26 40 -54 81 -61 92 -11 16 -12
-6 -8 -125 5 -136 7 -148 36 -207 22 -45 44 -73 78 -97 92 -67 88 -67 641 -67
579 0 571 -1 656 83 86 86 85 82 85 578 l0 427 -30 30 c-42 42 -42 101 -2 142
27 27 29 35 35 132 3 59 15 131 26 168 42 134 140 258 263 332 121 72 115 71
593 78 420 6 432 7 525 32 52 14 121 37 152 51 191 85 380 285 457 485 61 158
61 165 61 909 0 640 -1 680 -19 719 -26 57 -72 87 -140 92 -62 4 -105 -17
-144 -70 -31 -42 -35 -103 -36 -496 l-1 -363 29 -24 c16 -14 31 -38 35 -55 7
-38 -15 -94 -42 -109 -18 -10 -20 -24 -24 -188 -4 -161 -7 -185 -31 -253 -63
-176 -202 -311 -376 -363 -60 -18 -107 -21 -491 -27 -388 -6 -432 -9 -502 -28
-310 -85 -547 -316 -639 -623 -21 -70 -23 -99 -29 -519 -7 -464 -10 -492 -55
-580 -118 -235 -418 -334 -663 -220 -126 59 -243 205 -271 338 -8 38 -11 588
-11 1908 l0 1854 -197 -2 -196 -3 -4 -860 c-2 -473 -5 -884 -7 -913 -9 -103
-83 -222 -175 -282 -85 -54 -126 -62 -356 -70 -184 -6 -217 -10 -268 -29 -126
-49 -233 -160 -288 -298 -23 -57 -23 -64 -30 -613 -7 -589 -7 -597 -59 -751
-113 -336 -417 -608 -741 -665 -174 -30 -339 -7 -508 72 -211 99 -379 268
-481 487 -35 75 -80 212 -80 245 0 10 23 12 101 10 l101 -3 22 -75 c35 -120
89 -211 180 -308 133 -142 297 -215 481 -215 323 0 580 231 682 613 26 95 26
95 30 620 3 481 5 532 23 605 62 248 233 443 469 534 108 41 173 51 348 51
175 0 211 9 243 62 20 33 20 48 20 1016 0 1060 -2 1022 52 1050 32 16 61 17
488 17 345 0 378 -1 403 -18z m1200 -11 c179 -67 305 -207 352 -391 13 -50 15
-164 15 -745 0 -669 1 -686 20 -718 36 -58 58 -62 366 -62 235 0 281 2 310 16
67 32 65 4 67 742 3 734 1 708 67 847 66 137 211 266 357 316 96 33 266 34
368 2 76 -24 167 -78 234 -138 57 -52 128 -163 160 -248 l26 -72 3 -1477 2
-1477 30 -30 c23 -22 30 -38 30 -68 -1 -90 -108 -135 -168 -70 -43 46 -37 103
14 150 l27 25 -6 1449 -5 1448 -26 80 c-31 97 -70 161 -142 231 -57 56 -165
115 -244 133 -147 34 -322 -9 -449 -110 -63 -51 -144 -170 -173 -257 -22 -66
-23 -75 -28 -749 l-5 -681 -30 -43 c-54 -77 -79 -83 -325 -87 -118 -2 -265 1
-327 6 -99 8 -116 12 -147 36 -75 57 -70 11 -76 791 -6 766 -4 734 -67 859
-53 105 -174 199 -297 232 -60 16 -173 18 -235 3 -116 -26 -246 -127 -303
-235 -53 -99 -58 -140 -58 -481 0 -273 2 -314 15 -320 22 -8 45 -56 45 -92 0
-36 -40 -86 -76 -95 -36 -9 -89 10 -108 39 -9 13 -16 43 -16 65 0 33 6 48 30
72 l30 30 0 306 c0 345 6 388 66 503 79 150 216 254 379 289 74 17 223 4 298
-24z m-2596 -9 l28 -27 0 -998 0 -997 -32 -3 -33 -3 -2 986 c-3 863 -5 987
-18 995 -9 6 -342 10 -852 10 -747 0 -838 -2 -852 -16 -14 -13 -16 -59 -16
-345 l0 -329 26 -10 c15 -6 200 -10 455 -10 l429 0 -2 -1547 -3 -1548 -23 -60
c-63 -165 -185 -268 -352 -294 -131 -21 -255 18 -359 115 -91 84 -133 177
-151 331 -7 62 -13 80 -34 102 l-26 26 -360 3 c-255 2 -366 -1 -381 -9 -21
-11 -21 -15 -15 -138 13 -231 49 -389 126 -546 72 -149 143 -248 255 -361 157
-157 311 -256 496 -318 325 -109 653 -86 953 67 341 174 590 502 677 895 21
91 22 132 28 638 l6 541 29 41 c47 69 88 82 252 82 169 0 212 -15 254 -90 l25
-45 -3 -745 c-2 -483 1 -777 7 -837 35 -303 247 -548 547 -635 78 -23 84 -23
654 -23 628 0 625 0 755 60 206 95 356 291 391 512 4 27 8 321 8 655 l1 606
30 44 c17 23 51 54 75 68 l45 25 290 0 c160 0 307 -4 328 -8 43 -9 100 -55
125 -101 15 -28 18 -96 22 -701 5 -512 9 -679 19 -710 86 -263 343 -434 593
-395 197 30 369 185 434 390 14 45 18 105 22 328 l4 273 -25 19 c-81 64 -33
190 68 177 83 -12 112 -96 55 -160 l-30 -35 0 -240 c0 -316 -18 -412 -105
-547 -52 -83 -103 -134 -184 -187 -170 -111 -380 -125 -566 -37 -162 77 -279
219 -336 411 -22 71 -23 91 -28 730 l-6 658 -27 27 c-35 34 -82 40 -353 42
-257 1 -299 -4 -339 -39 l-31 -28 -6 -634 c-5 -611 -6 -636 -27 -713 -72 -263
-271 -466 -529 -537 -74 -21 -102 -22 -593 -25 -560 -4 -684 3 -805 41 -202
64 -380 224 -473 426 -78 168 -76 136 -82 1043 l-5 809 -33 29 -32 29 -136 0
c-143 0 -170 -7 -197 -54 -9 -15 -14 -167 -18 -561 -5 -462 -9 -551 -23 -615
-105 -452 -363 -788 -749 -976 -174 -85 -350 -124 -557 -124 -220 0 -390 41
-587 140 -356 179 -624 516 -718 901 -30 124 -48 299 -43 410 3 74 6 83 32
105 l28 25 392 -3 392 -3 36 -25 c53 -35 69 -70 84 -183 17 -121 46 -188 108
-255 58 -62 123 -97 208 -113 165 -30 331 69 400 238 l23 58 3 1508 2 1507
-416 0 c-462 0 -457 -1 -489 66 -22 47 -22 681 0 724 33 64 -28 61 937 58
l878 -3 27 -28z m-177 -1117 l0 -949 -30 -16 c-16 -8 -31 -15 -35 -15 -3 0 -5
419 -5 930 l0 930 -660 0 -660 0 0 -155 0 -155 487 0 488 1 2 -958 2 -958 -32
-67 c-18 -37 -34 -68 -37 -68 -3 0 -5 246 -4 547 0 302 -1 747 -3 991 l-5 442
-489 0 -489 0 0 225 0 225 735 0 735 0 0 -950z m2652 939 c106 -23 191 -89
245 -191 l28 -53 3 -464 3 -464 34 -39 c24 -26 35 -48 35 -69 0 -40 -25 -86
-51 -94 -21 -7 -21 -11 -17 -164 4 -141 6 -161 30 -212 30 -65 82 -120 147
-151 45 -22 55 -23 400 -26 418 -3 422 -3 512 87 84 85 92 113 97 370 l4 213
-30 32 c-17 17 -34 43 -37 57 -8 33 17 94 44 109 21 11 21 16 21 359 0 315 2
355 19 410 38 122 115 210 230 265 61 29 74 31 171 31 97 0 110 -2 171 -31
116 -55 192 -142 229 -262 19 -59 20 -94 20 -463 0 -322 3 -400 13 -406 8 -4
19 -23 25 -41 20 -59 -14 -106 -75 -106 -66 0 -97 81 -53 137 19 24 20 40 20
409 0 418 -4 450 -57 536 -130 210 -441 215 -577 10 -61 -92 -66 -131 -66
-501 l0 -329 30 -35 c42 -47 42 -103 1 -144 l-29 -29 -4 -222 c-4 -204 -6
-228 -27 -281 -43 -109 -121 -187 -227 -227 -55 -20 -70 -21 -423 -18 l-366 3
-67 33 c-82 40 -159 122 -190 202 -17 45 -22 83 -26 215 -4 159 -5 160 -33
193 -39 45 -39 90 1 135 l30 35 0 429 c0 476 -2 495 -63 575 -18 23 -55 56
-82 73 -43 26 -57 30 -124 30 -97 0 -159 -29 -212 -99 -62 -81 -62 -82 -66
-526 -5 -401 -4 -406 16 -424 26 -23 27 -38 4 -29 -13 4 -10 -3 9 -23 30 -32
42 -60 52 -119 l7 -40 -31 55 c-17 30 -53 77 -80 104 l-50 50 0 397 c0 488 5
520 102 625 53 58 100 86 168 100 72 16 79 16 142 3z m-2863 -1096 l0 -918
-35 -28 -34 -29 0 914 0 913 -490 -3 -490 -2 0 35 0 35 525 0 525 0 -1 -917z
m1367 843 c2 -11 3 -383 2 -826 l-3 -805 -24 -70 c-53 -161 -158 -301 -275
-370 -117 -68 -161 -78 -401 -85 -213 -6 -222 -7 -277 -34 -68 -32 -129 -98
-154 -164 -16 -42 -19 -104 -24 -602 -8 -613 -7 -612 -77 -800 -45 -123 -87
-197 -171 -306 -223 -289 -526 -438 -887 -437 -423 1 -813 247 -1008 638 -75
149 -127 354 -127 498 l0 47 275 0 275 0 9 -22 c4 -13 11 -47 15 -77 22 -170
151 -354 303 -434 106 -55 170 -70 282 -65 83 4 104 8 157 35 117 60 223 217
277 408 l22 80 2 1515 c1 833 2 1526 2 1540 1 21 6 26 31 28 l30 2 0 -1535 c0
-1699 3 -1604 -65 -1766 -60 -142 -148 -257 -244 -318 -148 -94 -387 -78 -566
39 -73 47 -171 147 -210 214 -31 54 -80 186 -90 244 l-7 42 -215 0 -215 0 7
-68 c40 -373 276 -706 619 -872 233 -113 469 -136 721 -70 317 84 597 346 716
672 62 168 62 164 68 773 7 556 7 560 30 618 49 124 158 214 286 236 34 6 131
11 216 11 107 0 173 5 214 15 149 39 276 145 343 287 70 146 67 107 64 978 -1
432 0 795 3 807 9 38 61 37 71 -1z m-236 -3042 c0 -541 4 -931 10 -979 25
-202 182 -377 385 -430 50 -13 147 -15 601 -15 512 0 545 1 606 20 124 38 230
126 284 236 50 103 54 134 54 494 l0 336 -30 26 c-25 22 -30 34 -30 73 0 39 5
52 29 74 l29 28 4 199 c3 194 4 200 31 255 43 88 98 143 185 186 l76 38 365 0
c363 0 366 0 426 -24 83 -33 173 -124 205 -206 20 -50 24 -83 28 -200 4 -137
5 -140 33 -173 42 -48 37 -115 -13 -150 -17 -12 -18 -36 -18 -424 0 -443 4
-486 55 -574 32 -54 95 -110 159 -140 62 -29 168 -32 240 -8 59 20 148 100
176 159 45 94 50 133 50 453 0 201 3 302 10 302 6 0 13 -8 17 -17 3 -10 15
-28 25 -40 19 -20 19 -35 16 -310 -4 -266 -6 -292 -26 -347 -32 -85 -64 -135
-119 -187 -157 -146 -396 -138 -546 20 -121 126 -127 159 -127 678 l0 411 -30
30 c-43 43 -42 101 1 144 l31 31 -4 136 c-3 112 -7 144 -25 182 -30 66 -86
124 -151 156 l-57 28 -355 0 -355 0 -57 -28 c-62 -30 -115 -83 -150 -149 -21
-40 -23 -57 -26 -234 l-3 -191 30 -31 c43 -43 44 -101 1 -144 l-30 -30 0 -331
c0 -375 -6 -424 -65 -536 -70 -132 -184 -228 -324 -271 -60 -19 -95 -20 -623
-20 -624 0 -622 0 -753 68 -87 46 -198 154 -242 237 -70 134 -67 78 -70 1116
l-4 937 33 19 c18 11 34 19 36 18 1 -1 2 -407 2 -901z m3479 691 c42 -45 75
-94 106 -158 81 -169 78 -136 82 -897 3 -585 2 -678 -11 -695 -12 -16 -18 -18
-33 -9 -17 11 -18 49 -23 695 -5 677 -6 685 -28 759 -32 105 -84 194 -160 273
-36 37 -63 69 -61 71 12 10 45 25 55 26 7 0 39 -29 73 -65z m3725 -2773 c28
-66 96 -135 161 -163 30 -13 55 -26 55 -29 0 -3 -21 -14 -48 -24 -67 -28 -136
-96 -163 -162 -13 -30 -26 -54 -29 -54 -3 0 -16 24 -29 54 -27 66 -96 134
-163 162 -27 10 -48 21 -48 24 0 3 25 16 55 29 65 28 133 97 161 163 10 27 21
48 24 48 3 0 14 -21 24 -48z"/>
<path d="M7980 5889 c0 -5 -6 -7 -12 -3 -7 4 -10 4 -6 -1 4 -4 0 -14 -10 -22
-15 -13 -14 -13 6 -3 13 6 48 10 77 8 45 -3 52 -2 43 9 -6 8 -17 12 -25 9 -8
-3 -11 -1 -8 4 4 6 -9 10 -29 10 -20 0 -36 -5 -36 -11z"/>
<path d="M9749 4871 c-17 -13 -20 -24 -15 -44 12 -50 86 -45 86 7 0 45 -38 64
-71 37z"/>
<path d="M7456 4704 c-22 -21 -20 -47 4 -69 40 -37 95 19 63 64 -17 25 -46 27
-67 5z"/>
<path d="M9901 3696 c-9 -11 -4 -22 23 -52 19 -22 44 -50 55 -64 13 -16 19
-19 15 -7 -8 24 4 21 28 -5 16 -18 15 -16 -3 12 -34 52 -82 105 -92 102 -5 -1
-6 2 -3 7 10 16 -11 22 -23 7z m89 -94 c0 -15 -2 -15 -10 -2 -13 20 -13 33 0
25 6 -3 10 -14 10 -23z"/>
<path d="M9550 3456 c0 -2 8 -10 18 -17 15 -13 16 -12 3 4 -13 16 -21 21 -21
13z"/>
<path d="M9590 3426 c0 -2 8 -10 18 -17 15 -13 16 -12 3 4 -13 16 -21 21 -21
13z"/>
<path d="M6520 3071 c0 -17 5 -31 10 -31 6 0 10 11 10 24 0 14 -4 28 -10 31
-6 4 -10 -7 -10 -24z"/>
<path d="M6520 2897 c0 -59 3 -78 13 -74 8 3 11 22 9 63 -5 93 -21 101 -22 11z"/>
<path d="M8070 2820 c-21 -40 12 -80 54 -64 22 8 31 50 16 69 -18 22 -57 19
-70 -5z"/>
<path d="M6782 2770 c0 -19 2 -27 5 -17 2 9 2 25 0 35 -3 9 -5 1 -5 -18z"/>
<path d="M10330 2640 c0 -5 5 -10 11 -10 6 0 8 -7 5 -16 -3 -9 4 -34 16 -55
41 -74 49 -33 8 44 -24 44 -40 60 -40 37z"/>
<path d="M7872 2628 c-26 -26 -7 -78 28 -78 19 0 50 30 50 48 0 32 -54 54 -78
30z"/>
<path d="M7450 5160 c-15 -29 -4 -59 26 -66 34 -9 56 12 52 50 -3 27 -7 31
-35 34 -24 2 -34 -2 -43 -18z"/>
<path d="M10504 3822 c-16 -25 -16 -236 0 -362 l14 -105 1 243 c0 133 0 242
-2 242 -1 0 -7 -8 -13 -18z"/>
<path d="M10466 2834 c-20 -51 17 -88 60 -59 42 27 25 75 -27 75 -15 0 -29 -7
-33 -16z"/>
<path d="M10472 2388 c-28 -28 -10 -78 29 -78 41 0 61 41 34 70 -20 23 -45 26
-63 8z"/>
<path d="M3340 1615 c13 -14 26 -25 28 -25 3 0 -5 11 -18 25 -13 14 -26 25
-28 25 -3 0 5 -11 18 -25z"/>
<path d="M9548 5019 c-28 -16 -23 -67 7 -81 21 -9 28 -8 45 7 25 23 26 47 2
68 -21 19 -30 20 -54 6z"/>
<path d="M10320 4926 c-19 -23 -8 -61 18 -64 44 -7 67 32 36 62 -19 20 -38 20
-54 2z"/>
<path d="M8279 4869 c-16 -30 3 -69 33 -69 42 0 62 28 47 68 -11 30 -64 31
-80 1z"/>
<path d="M9537 2732 c-22 -24 -21 -45 2 -66 39 -35 91 26 55 65 -21 24 -36 24
-57 1z"/>
<path d="M8280 2625 c-17 -20 -4 -62 21 -70 15 -5 28 -1 42 14 18 17 19 24 9
46 -13 29 -52 34 -72 10z"/>
<path d="M9720 3570 c-9 -6 -11 -12 -5 -17 6 -5 23 -19 38 -33 21 -18 26 -20
21 -7 -3 9 -11 17 -17 17 -6 0 -7 3 -4 7 4 3 17 -2 29 -13 25 -22 16 -1 -15
34 -23 25 -26 26 -47 12z"/>
</g>
</svg>
